Rokkitt-ExtraBold.ufo
<glyph name="numbersign" format="1">
  <advance width="1293"/>
  <unicode hex="0023"/>
  <outline>
    <contour>
      <point x="208" y="-4" type="line"/>
      <point x="401" y="-4" type="line"/>
      <point x="463" y="307" type="line"/>
      <point x="708" y="307" type="line"/>
      <point x="647" y="-4" type="line"/>
      <point x="840" y="-4" type="line"/>
      <point x="902" y="307" type="line"/>
      <point x="1149" y="307" type="line"/>
      <point x="1169" y="465" type="line"/>
      <point x="937" y="465" type="line"/>
      <point x="990" y="733" type="line"/>
      <point x="1214" y="733" type="line"/>
      <point x="1234" y="892" type="line"/>
      <point x="1024" y="892" type="line"/>
      <point x="1084" y="1187" type="line"/>
      <point x="888" y="1187" type="line"/>
      <point x="829" y="892" type="line"/>
      <point x="586" y="892" type="line"/>
      <point x="644" y="1187" type="line"/>
      <point x="449" y="1187" type="line"/>
      <point x="391" y="892" type="line"/>
      <point x="157" y="892" type="line"/>
      <point x="137" y="733" type="line"/>
      <point x="356" y="733" type="line"/>
      <point x="303" y="465" type="line"/>
      <point x="92" y="465" type="line"/>
      <point x="72" y="307" type="line"/>
      <point x="269" y="307" type="line"/>
    </contour>
    <contour>
      <point x="497" y="465" type="line"/>
      <point x="550" y="733" type="line"/>
      <point x="795" y="733" type="line"/>
      <point x="742" y="465" type="line"/>
    </contour>
  </outline>
</glyph>
<glyph name="parenright" format="1">
  <advance width="717"/>
  <unicode hex="0029"/>
  <outline>
    <contour>
      <point x="155" y="-141" type="line"/>
      <point x="483" y="23"/>
      <point x="647" y="269"/>
      <point x="647" y="513" type="curve" smooth="yes"/>
      <point x="647" y="761"/>
      <point x="480" y="1011"/>
      <point x="155" y="1171" type="curve"/>
      <point x="158" y="1011" type="line"/>
      <point x="276" y="906"/>
      <point x="338" y="712"/>
      <point x="338" y="518" type="curve" smooth="yes"/>
      <point x="338" y="323"/>
      <point x="276" y="129"/>
      <point x="158" y="26" type="curve"/>
    </contour>
  </outline>
</glyph>
<glyph name="asterisk" format="1">
  <advance width="923"/>
  <unicode hex="002A"/>
  <outline>
    <contour>
      <point x="332" y="411" type="line"/>
      <point x="464" y="736" type="line"/>
      <point x="600" y="411" type="line"/>
      <point x="793" y="548" type="line"/>
      <point x="539" y="772" type="line"/>
      <point x="864" y="798" type="line"/>
      <point x="807" y="1011" type="line"/>
      <point x="497" y="845" type="line"/>
      <point x="584" y="1182" type="line"/>
      <point x="348" y="1182" type="line"/>
      <point x="434" y="845" type="line"/>
      <point x="127" y="1011" type="line"/>
      <point x="67" y="798" type="line"/>
      <point x="394" y="772" type="line"/>
      <point x="137" y="548" type="line"/>
    </contour>
  </outline>
</glyph>
<glyph name="one" format="1">
  <advance width="1004"/>
  <unicode hex="0031"/>
  <outline>
    <contour>
      <point x="188" y="0" type="line"/>
      <point x="875" y="0" type="line"/>
      <point x="875" y="183" type="line"/>
      <point x="685" y="183" type="line"/>
      <point x="685" y="1150" type="line"/>
      <point x="183" y="1094" type="line"/>
      <point x="183" y="914" type="line"/>
      <point x="388" y="946" type="line"/>
      <point x="388" y="183" type="line"/>
      <point x="188" y="183" type="line"/>
    </contour>
  </outline>
</glyph>
<glyph name="three" format="1">
  <advance width="1142"/>
  <unicode hex="0033"/>
  <outline>
    <contour>
      <point x="477" y="511" type="line"/>
      <point x="673" y="511"/>
      <point x="756" y="461"/>
      <point x="756" y="351" type="curve" smooth="yes"/>
      <point x="756" y="246"/>
      <point x="673" y="189"/>
      <point x="560" y="189" type="curve" smooth="yes"/>
      <point x="455" y="189"/>
      <point x="357" y="241"/>
      <point x="312" y="378" type="curve"/>
      <point x="103" y="274" type="line"/>
      <point x="155" y="90"/>
      <point x="339" y="-22"/>
      <point x="558" y="-22" type="curve" smooth="yes"/>
      <point x="880" y="-22"/>
      <point x="1036" y="138"/>
      <point x="1036" y="342" type="curve" smooth="yes"/>
      <point x="1036" y="467"/>
      <point x="960" y="579"/>
      <point x="801" y="617" type="curve"/>
      <point x="921" y="652"/>
      <point x="988" y="735"/>
      <point x="988" y="856" type="curve" smooth="yes"/>
      <point x="988" y="1008"/>
      <point x="872" y="1175"/>
      <point x="552" y="1175" type="curve" smooth="yes"/>
      <point x="392" y="1175"/>
      <point x="155" y="1087"/>
      <point x="108" y="889" type="curve"/>
      <point x="327" y="801" type="line"/>
      <point x="357" y="893"/>
      <point x="432" y="962"/>
      <point x="539" y="962" type="curve" smooth="yes"/>
      <point x="642" y="962"/>
      <point x="709" y="903"/>
      <point x="709" y="832" type="curve" smooth="yes"/>
      <point x="709" y="747"/>
      <point x="650" y="683"/>
      <point x="477" y="683" type="curve"/>
    </contour>
  </outline>
</glyph>
<glyph name="four" format="1">
  <advance width="1104"/>
  <unicode hex="0034"/>
  <outline>
    <contour>
      <point x="351" y="0" type="line"/>
      <point x="966" y="0" type="line"/>
      <point x="966" y="182" type="line"/>
      <point x="808" y="182" type="line"/>
      <point x="808" y="366" type="line"/>
      <point x="978" y="366" type="line"/>
      <point x="978" y="528" type="line"/>
      <point x="808" y="528" type="line"/>
      <point x="808" y="1152" type="line"/>
      <point x="527" y="1152" type="line"/>
      <point x="34" y="523" type="line"/>
      <point x="59" y="366" type="line"/>
      <point x="537" y="366" type="line"/>
      <point x="537" y="182" type="line"/>
      <point x="351" y="182" type="line"/>
    </contour>
    <contour>
      <point x="252" y="528" type="line"/>
      <point x="537" y="914" type="line"/>
      <point x="537" y="528" type="line"/>
    </contour>
  </outline>
</glyph>
<glyph name="less" format="1">
  <advance width="1189"/>
  <unicode hex="003C"/>
  <outline>
    <contour>
      <point x="991" y="60" type="line"/>
      <point x="991" y="288" type="line"/>
      <point x="277" y="592" type="line"/>
      <point x="991" y="903" type="line"/>
      <point x="991" y="1128" type="line"/>
      <point x="59" y="709" type="line"/>
      <point x="59" y="466" type="line"/>
    </contour>
  </outline>
</glyph>
<glyph name="equal" format="1">
  <advance width="1141"/>
  <unicode hex="003D"/>
  <outline>
    <contour>
      <point x="161" y="212" type="line"/>
      <point x="980" y="212" type="line"/>
      <point x="980" y="397" type="line"/>
      <point x="161" y="397" type="line"/>
    </contour>
    <contour>
      <point x="161" y="611" type="line"/>
      <point x="980" y="611" type="line"/>
      <point x="980" y="797" type="line"/>
      <point x="161" y="797" type="line"/>
    </contour>
  </outline>
</glyph>
<glyph name="H" format="1">
  <advance width="1537"/>
  <unicode hex="0048"/>
  <outline>
    <contour>
      <point x="776" y="1152" type="move" name="top"/>
    </contour>
    <contour>
      <point x="51" y="0" type="line"/>
      <point x="694" y="0" type="line"/>
      <point x="694" y="182" type="line"/>
      <point x="530" y="182" type="line"/>
      <point x="530" y="497" type="line"/>
      <point x="1008" y="497" type="line"/>
      <point x="1008" y="182" type="line"/>
      <point x="844" y="182" type="line"/>
      <point x="844" y="0" type="line"/>
      <point x="1487" y="0" type="line"/>
      <point x="1487" y="182" type="line"/>
      <point x="1323" y="182" type="line"/>
      <point x="1323" y="970" type="line"/>
      <point x="1487" y="970" type="line"/>
      <point x="1487" y="1152" type="line"/>
      <point x="844" y="1152" type="line"/>
      <point x="844" y="970" type="line"/>
      <point x="1008" y="970" type="line"/>
      <point x="1008" y="679" type="line"/>
      <point x="530" y="679" type="line"/>
      <point x="530" y="970" type="line"/>
      <point x="694" y="970" type="line"/>
      <point x="694" y="1152" type="line"/>
      <point x="51" y="1152" type="line"/>
      <point x="51" y="970" type="line"/>
      <point x="215" y="970" type="line"/>
      <point x="215" y="182" type="line"/>
      <point x="51" y="182" type="line"/>
    </contour>
  </outline>
</glyph>
<glyph name="P" format="1">
  <advance width="1241"/>
  <unicode hex="0050"/>
  <outline>
    <contour>
      <point x="589" y="1152" type="move" name="top"/>
    </contour>
    <contour>
      <point x="605" y="459" type="line"/>
      <point x="656" y="459" type="line" smooth="yes"/>
      <point x="1074" y="459"/>
      <point x="1202" y="572"/>
      <point x="1202" y="810" type="curve" smooth="yes"/>
      <point x="1202" y="1059"/>
      <point x="1031" y="1152"/>
      <point x="707" y="1152" type="curve" smooth="yes"/>
      <point x="51" y="1152" type="line"/>
      <point x="51" y="970" type="line"/>
      <point x="215" y="970" type="line"/>
      <point x="215" y="182" type="line"/>
      <point x="51" y="182" type="line"/>
      <point x="51" y="0" type="line"/>
      <point x="694" y="0" type="line"/>
      <point x="694" y="182" type="line"/>
      <point x="530" y="182" type="line"/>
      <point x="530" y="970" type="line"/>
      <point x="720" y="970" type="line" smooth="yes"/>
      <point x="815" y="970"/>
      <point x="886" y="921"/>
      <point x="886" y="811" type="curve" smooth="yes"/>
      <point x="886" y="695"/>
      <point x="826" y="633"/>
      <point x="666" y="633" type="curve" smooth="yes"/>
      <point x="605" y="633" type="line"/>
    </contour>
  </outline>
</glyph>
<glyph name="bracketleft" format="1">
  <advance width="845"/>
  <unicode hex="005B"/>
  <outline>
    <contour>
      <point x="263" y="-223" type="line"/>
      <point x="695" y="-223" type="line"/>
      <point x="695" y="-63" type="line"/>
      <point x="510" y="-63" type="line"/>
      <point x="510" y="1104" type="line"/>
      <point x="695" y="1104" type="line"/>
      <point x="695" y="1260" type="line"/>
      <point x="263" y="1260" type="line"/>
    </contour>
  </outline>
</glyph>
<glyph name="underscore" format="1">
  <advance width="1153"/>
  <unicode hex="005F"/>
  <outline>
    <contour>
      <point x="70" y="-205" type="line"/>
      <point x="1083" y="-205" type="line"/>
      <point x="1083" y="-82" type="line"/>
      <point x="70" y="-82" type="line"/>
    </contour>
  </outline>
</glyph>
<glyph name="grave" format="1">
  <advance width="591"/>
  <unicode hex="0060"/>
  <outline>
    <contour>
      <point x="380" y="804" type="move" name="_top"/>
    </contour>
    <contour>
      <point x="295" y="944" type="line"/>
      <point x="460" y="944" type="line"/>
      <point x="359" y="1292" type="line"/>
      <point x="85" y="1292" type="line"/>
    </contour>
  </outline>
</glyph>
<glyph name="e" format="1">
  <advance width="945"/>
  <unicode hex="0065"/>
  <outline>
    <contour>
      <point x="483" y="804" type="move" name="top"/>
    </contour>
    <contour>
      <point x="331" y="495" type="line"/>
      <point x="347" y="597"/>
      <point x="413" y="663"/>
      <point x="498" y="663" type="curve" smooth="yes"/>
      <point x="588" y="663"/>
      <point x="648" y="597"/>
      <point x="651" y="495" type="curve"/>
    </contour>
    <contour>
      <point x="517" y="-20" type="curve" smooth="yes"/>
      <point x="667" y="-20"/>
      <point x="807" y="34"/>
      <point x="887" y="108" type="curve"/>
      <point x="809" y="254" type="line"/>
      <point x="734" y="203"/>
      <point x="644" y="168"/>
      <point x="549" y="168" type="curve" smooth="yes"/>
      <point x="430" y="168"/>
      <point x="336" y="234"/>
      <point x="329" y="359" type="curve"/>
      <point x="893" y="359" type="line"/>
      <point x="893" y="645"/>
      <point x="737" y="827"/>
      <point x="490" y="827" type="curve" smooth="yes"/>
      <point x="217" y="827"/>
      <point x="43" y="660"/>
      <point x="43" y="396" type="curve" smooth="yes"/>
      <point x="43" y="142"/>
      <point x="227" y="-20"/>
    </contour>
  </outline>
</glyph>
<glyph name="f" format="1">
  <advance width="837"/>
  <unicode hex="0066"/>
  <outline>
    <contour>
      <point x="429" y="1175" type="move" name="top"/>
    </contour>
    <contour>
      <point x="68" y="0" type="line"/>
      <point x="748" y="0" type="line"/>
      <point x="748" y="182" type="line"/>
      <point x="521" y="182" type="line"/>
      <point x="521" y="622" type="line"/>
      <point x="742" y="622" type="line"/>
      <point x="742" y="804" type="line"/>
      <point x="521" y="804" type="line"/>
      <point x="521" y="916" type="line" smooth="yes"/>
      <point x="521" y="1044"/>
      <point x="563" y="1070"/>
      <point x="610" y="1070" type="curve" smooth="yes"/>
      <point x="679" y="1070"/>
      <point x="687" y="1027"/>
      <point x="699" y="951" type="curve"/>
      <point x="902" y="1013" type="line"/>
      <point x="883" y="1170"/>
      <point x="792" y="1240"/>
      <point x="576" y="1240" type="curve" smooth="yes"/>
      <point x="299" y="1240"/>
      <point x="246" y="1054"/>
      <point x="246" y="876" type="curve" smooth="yes"/>
      <point x="246" y="804" type="line"/>
      <point x="70" y="804" type="line"/>
      <point x="70" y="622" type="line"/>
      <point x="246" y="622" type="line"/>
      <point x="246" y="182" type="line"/>
      <point x="68" y="182" type="line"/>
    </contour>
  </outline>
</glyph>
<glyph name="k" format="1">
  <advance width="1159"/>
  <unicode hex="006B"/>
  <outline>
    <contour>
      <point x="821" y="979" type="move" name="top"/>
    </contour>
    <contour>
      <point x="820" y="0" type="line"/>
      <point x="1122" y="0" type="line"/>
      <point x="1122" y="183" type="line"/>
      <point x="974" y="183" type="line"/>
      <point x="753" y="434" type="line"/>
      <point x="977" y="624" type="line"/>
      <point x="1096" y="624" type="line"/>
      <point x="1096" y="804" type="line"/>
      <point x="596" y="804" type="line"/>
      <point x="596" y="624" type="line"/>
      <point x="740" y="624" type="line"/>
      <point x="466" y="412" type="line"/>
    </contour>
    <contour>
      <point x="47" y="0" type="line"/>
      <point x="582" y="0" type="line"/>
      <point x="582" y="182" type="line"/>
      <point x="460" y="182" type="line"/>
      <point x="460" y="1174" type="line"/>
      <point x="48" y="1174" type="line"/>
      <point x="48" y="992" type="line"/>
      <point x="185" y="992" type="line"/>
      <point x="185" y="182" type="line"/>
      <point x="47" y="182" type="line"/>
    </contour>
  </outline>
</glyph>
<glyph name="v" format="1">
  <advance width="1142"/>
  <unicode hex="0076"/>
  <outline>
    <contour>
      <point x="455" y="0" type="line"/>
      <point x="693" y="0" type="line"/>
      <point x="998" y="622" type="line"/>
      <point x="1118" y="622" type="line"/>
      <point x="1118" y="804" type="line"/>
      <point x="669" y="804" type="line"/>
      <point x="669" y="622" type="line"/>
      <point x="770" y="622" type="line"/>
      <point x="610" y="265" type="line"/>
      <point x="451" y="622" type="line"/>
      <point x="544" y="622" type="line"/>
      <point x="544" y="804" type="line"/>
      <point x="24" y="804" type="line"/>
      <point x="24" y="622" type="line"/>
      <point x="151" y="622" type="line"/>
    </contour>
  </outline>
</glyph>
<glyph name="acute" format="1">
  <advance width="660"/>
  <unicode hex="00B4"/>
  <outline>
    <contour>
      <point x="232" y="804" type="move" name="_top"/>
    </contour>
    <contour>
      <point x="170" y="944" type="line"/>
      <point x="335" y="944" type="line"/>
      <point x="544" y="1292" type="line"/>
      <point x="271" y="1292" type="line"/>
    </contour>
  </outline>
</glyph>
<glyph name="cedilla" format="1">
  <advance width="542"/>
  <unicode hex="00B8"/>
  <outline>
    <contour>
      <point x="290" y="-410" type="curve" smooth="yes"/>
      <point x="389" y="-410"/>
      <point x="474" y="-367"/>
      <point x="474" y="-262" type="curve" smooth="yes"/>
      <point x="474" y="-194"/>
      <point x="424" y="-130"/>
      <point x="320" y="-114" type="curve"/>
      <point x="348" y="4" type="line"/>
      <point x="245" y="4" type="line"/>
      <point x="175" y="-174" type="line"/>
      <point x="256" y="-180"/>
      <point x="293" y="-202"/>
      <point x="293" y="-244" type="curve" smooth="yes"/>
      <point x="293" y="-290"/>
      <point x="262" y="-306"/>
      <point x="218" y="-306" type="curve" smooth="yes"/>
      <point x="181" y="-306"/>
      <point x="135" y="-293"/>
      <point x="93" y="-278" type="curve"/>
      <point x="93" y="-358" type="line"/>
      <point x="152" y="-391"/>
      <point x="224" y="-410"/>
    </contour>
  </outline>
</glyph>
<glyph name="guillemotright" format="1">
  <advance width="1138"/>
  <unicode hex="00BB"/>
  <outline>
    <contour>
      <point x="106" y="118" type="line"/>
      <point x="314" y="118" type="line"/>
      <point x="617" y="562" type="line"/>
      <point x="314" y="999" type="line"/>
      <point x="106" y="999" type="line"/>
      <point x="332" y="560" type="line"/>
    </contour>
    <contour>
      <point x="579" y="118" type="line"/>
      <point x="787" y="118" type="line"/>
      <point x="1090" y="562" type="line"/>
      <point x="787" y="999" type="line"/>
      <point x="579" y="999" type="line"/>
      <point x="805" y="560" type="line"/>
    </contour>
  </outline>
</glyph>
<glyph name="AE" format="1">
  <advance width="1941"/>
  <unicode hex="00C6"/>
  <outline>
    <contour>
      <point x="1217" y="1152" type="move" name="top"/>
    </contour>
    <contour>
      <point x="14" y="0" type="line"/>
      <point x="580" y="0" type="line"/>
      <point x="580" y="182" type="line"/>
      <point x="473" y="182" type="line"/>
      <point x="599" y="413" type="line"/>
      <point x="937" y="413" type="line"/>
      <point x="937" y="182" type="line"/>
      <point x="794" y="182" type="line"/>
      <point x="794" y="0" type="line"/>
      <point x="1877" y="0" type="line"/>
      <point x="1877" y="373" type="line"/>
      <point x="1693" y="373" type="line"/>
      <point x="1693" y="182" type="line"/>
      <point x="1253" y="182" type="line"/>
      <point x="1253" y="524" type="line"/>
      <point x="1480" y="524" type="line"/>
      <point x="1480" y="393" type="line"/>
      <point x="1600" y="393" type="line"/>
      <point x="1600" y="789" type="line"/>
      <point x="1480" y="789" type="line"/>
      <point x="1480" y="649" type="line"/>
      <point x="1252" y="649" type="line"/>
      <point x="1252" y="970" type="line"/>
      <point x="1691" y="970" type="line"/>
      <point x="1691" y="786" type="line"/>
      <point x="1875" y="786" type="line"/>
      <point x="1875" y="1152" type="line"/>
      <point x="525" y="1152" type="line"/>
      <point x="525" y="970" type="line"/>
      <point x="643" y="970" type="line"/>
      <point x="172" y="182" type="line"/>
      <point x="14" y="182" type="line"/>
    </contour>
    <contour>
      <point x="665" y="544" type="line"/>
      <point x="913" y="970" type="line"/>
      <point x="937" y="970" type="line"/>
      <point x="937" y="544" type="line"/>
    </contour>
  </outline>
</glyph>
<glyph name="Thorn" format="1">
  <advance width="1230"/>
  <unicode hex="00DE"/>
  <outline>
    <contour>
      <point x="50" y="0" type="line"/>
      <point x="693" y="0" type="line"/>
      <point x="693" y="182" type="line"/>
      <point x="529" y="182" type="line"/>
      <point x="529" y="970" type="line"/>
      <point x="693" y="970" type="line"/>
      <point x="693" y="1152" type="line"/>
      <point x="50" y="1152" type="line"/>
      <point x="50" y="970" type="line"/>
      <point x="214" y="970" type="line"/>
      <point x="214" y="182" type="line"/>
      <point x="50" y="182" type="line"/>
    </contour>
    <contour>
      <point x="595" y="328" type="line"/>
      <point x="669" y="328" type="line" smooth="yes"/>
      <point x="1083" y="328"/>
      <point x="1215" y="421"/>
      <point x="1215" y="605" type="curve" smooth="yes"/>
      <point x="1215" y="799"/>
      <point x="1051" y="876"/>
      <point x="746" y="876" type="curve" smooth="yes"/>
      <point x="387" y="876" type="line"/>
      <point x="387" y="732" type="line"/>
      <point x="738" y="732" type="line" smooth="yes"/>
      <point x="826" y="732"/>
      <point x="897" y="692"/>
      <point x="897" y="605" type="curve" smooth="yes"/>
      <point x="897" y="515"/>
      <point x="845" y="464"/>
      <point x="707" y="464" type="curve" smooth="yes"/>
      <point x="595" y="464" type="line"/>
    </contour>
  </outline>
</glyph>
<glyph name="thorn" format="1">
  <advance width="1187"/>
  <unicode hex="00FE"/>
  <outline>
    <contour>
      <point x="721" y="0" type="curve" smooth="yes"/>
      <point x="933" y="0"/>
      <point x="1132" y="156"/>
      <point x="1132" y="440" type="curve" smooth="yes"/>
      <point x="1132" y="687"/>
      <point x="974" y="847"/>
      <point x="741" y="847" type="curve" smooth="yes"/>
      <point x="596" y="847"/>
      <point x="446" y="764"/>
      <point x="321" y="626" type="curve"/>
      <point x="329" y="529" type="line"/>
      <point x="450" y="620"/>
      <point x="540" y="660"/>
      <point x="627" y="660" type="curve" smooth="yes"/>
      <point x="777" y="660"/>
      <point x="843" y="547"/>
      <point x="843" y="422" type="curve" smooth="yes"/>
      <point x="843" y="260"/>
      <point x="740" y="172"/>
      <point x="610" y="172" type="curve" smooth="yes"/>
      <point x="532" y="172"/>
      <point x="438" y="204"/>
      <point x="328" y="318" type="curve"/>
      <point x="323" y="252" type="line"/>
      <point x="426" y="80"/>
      <point x="570" y="0"/>
    </contour>
    <contour>
      <point x="43" y="-376" type="line"/>
      <point x="463" y="-376" type="line"/>
      <point x="461" y="1150" type="line"/>
      <point x="31" y="1150" type="line"/>
      <point x="31" y="970" type="line"/>
      <point x="184" y="970" type="line"/>
      <point x="184" y="-198" type="line"/>
      <point x="43" y="-198" type="line"/>
    </contour>
  </outline>
</glyph>
<glyph name="oe" format="1">
  <advance width="1628"/>
  <unicode hex="0153"/>
  <outline>
    <contour>
      <point x="513" y="-22" type="curve" smooth="yes"/>
      <point x="680" y="-22"/>
      <point x="783" y="51"/>
      <point x="838" y="131" type="curve"/>
      <point x="892" y="51"/>
      <point x="1005" y="-21"/>
      <point x="1184" y="-21" type="curve" smooth="yes"/>
      <point x="1334" y="-21"/>
      <point x="1462" y="26"/>
      <point x="1545" y="107" type="curve"/>
      <point x="1455" y="246" type="line"/>
      <point x="1384" y="195"/>
      <point x="1293" y="164"/>
      <point x="1209" y="164" type="curve" smooth="yes"/>
      <point x="1079" y="164"/>
      <point x="992" y="232"/>
      <point x="985" y="358" type="curve"/>
      <point x="1552" y="358" type="line"/>
      <point x="1552" y="639"/>
      <point x="1414" y="827"/>
      <point x="1153" y="827" type="curve" smooth="yes"/>
      <point x="1007" y="827"/>
      <point x="902" y="767"/>
      <point x="839" y="675" type="curve"/>
      <point x="772" y="772"/>
      <point x="648" y="826"/>
      <point x="520" y="826" type="curve" smooth="yes"/>
      <point x="245" y="826"/>
      <point x="63" y="656"/>
      <point x="63" y="409" type="curve" smooth="yes"/>
      <point x="63" y="155"/>
      <point x="236" y="-22"/>
    </contour>
    <contour>
      <point x="519" y="164" type="line" smooth="yes"/>
      <point x="517" y="164" type="line" smooth="yes"/>
      <point x="404" y="164"/>
      <point x="333" y="262"/>
      <point x="333" y="409" type="curve" smooth="yes"/>
      <point x="333" y="545"/>
      <point x="405" y="638"/>
      <point x="518" y="638" type="curve" smooth="yes"/>
      <point x="632" y="638"/>
      <point x="704" y="545"/>
      <point x="704" y="409" type="curve" smooth="yes"/>
      <point x="704" y="262"/>
      <point x="632" y="164"/>
      <point x="521" y="164" type="curve" smooth="yes"/>
    </contour>
    <contour>
      <point x="987" y="492" type="line"/>
      <point x="1004" y="598"/>
      <point x="1064" y="663"/>
      <point x="1161" y="663" type="curve" smooth="yes"/>
      <point x="1261" y="663"/>
      <point x="1311" y="596"/>
      <point x="1316" y="492" type="curve"/>
    </contour>
  </outline>
</glyph>
<glyph name="uni021B" format="1">
  <advance width="701"/>
  <unicode hex="021B"/>
  <outline>
    <component base="t"/>
    <contour>
      <point x="254" y="-611" type="line"/>
      <point x="468" y="-611"/>
      <point x="566" y="-530"/>
      <point x="566" y="-378" type="curve" smooth="yes"/>
      <point x="566" y="-112" type="line"/>
      <point x="254" y="-112" type="line"/>
      <point x="254" y="-339" type="line"/>
      <point x="381" y="-339" type="line"/>
      <point x="381" y="-430"/>
      <point x="353" y="-469"/>
      <point x="254" y="-476" type="curve"/>
    </contour>
  </outline>
</glyph>
<glyph name="apostrophemod" format="1">
  <advance width="600"/>
  <unicode hex="02BC"/>
  <outline>
    <contour>
      <point x="33" y="876" type="line"/>
      <point x="247" y="876"/>
      <point x="345" y="957"/>
      <point x="345" y="1109" type="curve" smooth="yes"/>
      <point x="345" y="1375" type="line"/>
      <point x="33" y="1375" type="line"/>
      <point x="33" y="1148" type="line"/>
      <point x="160" y="1148" type="line"/>
      <point x="160" y="1057"/>
      <point x="132" y="1018"/>
      <point x="33" y="1011" type="curve"/>
    </contour>
  </outline>
</glyph>
<glyph name="dotaccent" format="1">
  <advance width="450"/>
  <unicode hex="02D9"/>
  <outline>
    <contour>
      <point x="228" y="804" type="move" name="_top"/>
    </contour>
    <contour>
      <point x="228" y="967" type="curve" smooth="yes"/>
      <point x="328" y="967"/>
      <point x="398" y="1033"/>
      <point x="398" y="1128" type="curve" smooth="yes"/>
      <point x="398" y="1223"/>
      <point x="330" y="1291"/>
      <point x="228" y="1291" type="curve" smooth="yes"/>
      <point x="128" y="1291"/>
      <point x="58" y="1224"/>
      <point x="58" y="1130" type="curve" smooth="yes"/>
      <point x="58" y="1034"/>
      <point x="128" y="967"/>
    </contour>
  </outline>
</glyph>
<glyph name="ogonek" format="1">
  <advance width="319"/>
  <unicode hex="02DB"/>
  <outline>
    <contour>
      <point x="231" y="-388" type="curve" smooth="yes"/>
      <point x="281" y="-388"/>
      <point x="325" y="-377"/>
      <point x="385" y="-348" type="curve"/>
      <point x="385" y="-222" type="line"/>
      <point x="357" y="-232"/>
      <point x="333" y="-235"/>
      <point x="309" y="-235" type="curve" smooth="yes"/>
      <point x="234" y="-235"/>
      <point x="195" y="-194"/>
      <point x="195" y="-127" type="curve" smooth="yes"/>
      <point x="195" y="-92"/>
      <point x="206" y="-44"/>
      <point x="245" y="10" type="curve"/>
      <point x="132" y="10" type="line"/>
      <point x="69" y="-67"/>
      <point x="45" y="-141"/>
      <point x="45" y="-206" type="curve" smooth="yes"/>
      <point x="45" y="-310"/>
      <point x="117" y="-388"/>
    </contour>
  </outline>
</glyph>
<glyph name="uni0307" format="1">
  <advance width="535"/>
  <unicode hex="0307"/>
  <outline>
    <contour>
      <point x="270" y="804" type="move" name="_top"/>
    </contour>
    <contour>
      <point x="268" y="889" type="curve" smooth="yes"/>
      <point x="363" y="889"/>
      <point x="424" y="952"/>
      <point x="423" y="1038" type="curve"/>
      <point x="423" y="1128"/>
      <point x="359" y="1186"/>
      <point x="268" y="1186" type="curve" smooth="yes"/>
      <point x="179" y="1186"/>
      <point x="113" y="1127"/>
      <point x="113" y="1040" type="curve" smooth="yes"/>
      <point x="113" y="952"/>
      <point x="177" y="889"/>
    </contour>
  </outline>
</glyph>
<glyph name="quoteleft" format="1">
  <advance width="616"/>
  <unicode hex="2018"/>
  <outline>
    <contour>
      <point x="158" y="681" type="line"/>
      <point x="427" y="681" type="line"/>
      <point x="427" y="939" type="line"/>
      <point x="299" y="939" type="line"/>
      <point x="299" y="1042"/>
      <point x="325" y="1075"/>
      <point x="406" y="1081" type="curve"/>
      <point x="406" y="1198" type="line"/>
      <point x="208" y="1197"/>
      <point x="158" y="1060"/>
      <point x="158" y="931" type="curve" smooth="yes"/>
    </contour>
  </outline>
</glyph>
<glyph name="quotesinglbase" format="1">
  <advance width="615"/>
  <unicode hex="201A"/>
  <outline>
    <contour>
      <point x="195" y="-264" type="line"/>
      <point x="394" y="-263"/>
      <point x="443" y="-125"/>
      <point x="443" y="4" type="curve" smooth="yes"/>
      <point x="443" y="253" type="line"/>
      <point x="174" y="253" type="line"/>
      <point x="174" y="-5" type="line"/>
      <point x="303" y="-5" type="line"/>
      <point x="302" y="-107"/>
      <point x="277" y="-141"/>
      <point x="195" y="-147" type="curve"/>
    </contour>
  </outline>
</glyph>
<glyph name="perthousand" format="1">
  <advance width="2695"/>
  <unicode hex="2030"/>
  <outline>
    <component base="percent"/>
    <contour>
      <point x="2241" y="116" type="curve"/>
      <point x="2159" y="119"/>
      <point x="2104" y="184"/>
      <point x="2104" y="284" type="curve" smooth="yes"/>
      <point x="2104" y="382"/>
      <point x="2159" y="447"/>
      <point x="2241" y="449" type="curve" smooth="yes"/>
      <point x="2325" y="447"/>
      <point x="2381" y="382"/>
      <point x="2381" y="284" type="curve" smooth="yes"/>
      <point x="2381" y="184"/>
      <point x="2325" y="119"/>
    </contour>
    <contour>
      <point x="2241" y="-22" type="curve" smooth="yes"/>
      <point x="2431" y="-22"/>
      <point x="2563" y="104"/>
      <point x="2563" y="284" type="curve" smooth="yes"/>
      <point x="2563" y="462"/>
      <point x="2431" y="586"/>
      <point x="2241" y="586" type="curve" smooth="yes"/>
      <point x="2053" y="586"/>
      <point x="1922" y="462"/>
      <point x="1922" y="284" type="curve" smooth="yes"/>
      <point x="1922" y="104"/>
      <point x="2053" y="-22"/>
    </contour>
  </outline>
</glyph>
<glyph name="trademark" format="1">
  <advance width="1838"/>
  <unicode hex="2122"/>
  <outline>
    <contour>
      <point x="821" y="467" type="line"/>
      <point x="1116" y="467" type="line"/>
      <point x="1116" y="570" type="line"/>
      <point x="1030" y="570" type="line"/>
      <point x="1030" y="983" type="line"/>
      <point x="1227" y="496" type="line"/>
      <point x="1301" y="496" type="line"/>
      <point x="1492" y="982" type="line"/>
      <point x="1492" y="570" type="line"/>
      <point x="1407" y="570" type="line"/>
      <point x="1407" y="467" type="line"/>
      <point x="1726" y="467" type="line"/>
      <point x="1726" y="570" type="line"/>
      <point x="1641" y="570" type="line"/>
      <point x="1641" y="1048" type="line"/>
      <point x="1726" y="1048" type="line"/>
      <point x="1726" y="1152" type="line"/>
      <point x="1441" y="1152" type="line"/>
      <point x="1266" y="732" type="line"/>
      <point x="1095" y="1152" type="line"/>
      <point x="821" y="1152" type="line"/>
      <point x="821" y="1048" type="line"/>
      <point x="906" y="1048" type="line"/>
      <point x="906" y="570" type="line"/>
      <point x="821" y="570" type="line"/>
    </contour>
    <contour>
      <point x="261" y="467" type="line"/>
      <point x="626" y="467" type="line"/>
      <point x="626" y="570" type="line"/>
      <point x="525" y="570" type="line"/>
      <point x="525" y="1048" type="line"/>
      <point x="622" y="1048" type="line"/>
      <point x="622" y="873" type="line"/>
      <point x="746" y="873" type="line"/>
      <point x="746" y="1152" type="line"/>
      <point x="140" y="1152" type="line"/>
      <point x="140" y="873" type="line"/>
      <point x="264" y="873" type="line"/>
      <point x="264" y="1048" type="line"/>
      <point x="364" y="1048" type="line"/>
      <point x="364" y="570" type="line"/>
      <point x="261" y="570" type="line"/>
    </contour>
  </outline>
</glyph>
<glyph name="minus" format="1">
  <advance width="924"/>
  <unicode hex="2212"/>
  <outline>
    <contour>
      <point x="68" y="398" type="line"/>
      <point x="856" y="398" type="line"/>
      <point x="856" y="578" type="line"/>
      <point x="68" y="578" type="line"/>
    </contour>
  </outline>
</glyph>
<glyph name="radical" format="1">
  <advance width="1309"/>
  <unicode hex="221A"/>
  <outline>
    <contour>
      <point x="478" y="-6" type="line"/>
      <point x="694" y="-6" type="line"/>
      <point x="1228" y="1311" type="line"/>
      <point x="1079" y="1311" type="line"/>
      <point x="623" y="202" type="line"/>
      <point x="470" y="579" type="line"/>
      <point x="104" y="579" type="line"/>
      <point x="104" y="456" type="line"/>
      <point x="270" y="456" type="line"/>
    </contour>
  </outline>
</glyph>
<glyph name="lessequal" format="1">
  <advance width="1073"/>
  <unicode hex="2264"/>
  <outline>
    <contour>
      <point x="950" y="253" type="line"/>
      <point x="950" y="457" type="line"/>
      <point x="337" y="731" type="line"/>
      <point x="950" y="1012" type="line"/>
      <point x="950" y="1213" type="line"/>
      <point x="71" y="784" type="line"/>
      <point x="71" y="680" type="line"/>
    </contour>
    <contour>
      <point x="71" y="0" type="line"/>
      <point x="950" y="0" type="line"/>
      <point x="950" y="185" type="line"/>
      <point x="71" y="185" type="line"/>
    </contour>
  </outline>
</glyph>
<glyph name="lozenge" format="1">
  <advance width="1136"/>
  <unicode hex="25CA"/>
  <outline>
    <contour>
      <point x="521" y="0" type="line"/>
      <point x="615" y="0" type="line"/>
      <point x="1094" y="613" type="line"/>
      <point x="615" y="1222" type="line"/>
      <point x="521" y="1222" type="line"/>
      <point x="42" y="613" type="line"/>
    </contour>
    <contour>
      <point x="570" y="184" type="line"/>
      <point x="248" y="613" type="line"/>
      <point x="570" y="1031" type="line"/>
      <point x="888" y="613" type="line"/>
    </contour>
  </outline>
</glyph>
